# xmcd
#
# Track frame offsets:
#	150
#	20217
#	38216
#	50846
#	63053
#	74702
#	89609
#	107163
#	122893
#	142128
#	155364
#	166672
#	183671
#	202498
#	218153
#	229849
#	244149
#	262673
#	278513
#	291600
#	303366
#	316800
#	328151
#	341800
#
# Disc length: 4774 seconds
#
# Revision: 1
# Processed by: cddbd v1.5.2PL0 Copyright (c) Steve Scherf et al.
# Submitted via: audiograbber 1.83.01
#
DISCID=8112a418
DTITLE=Various Artist - Best Country Album Ever - CD2
DYEAR=2006
DGENRE=
TTITLE0=Lonestar - Amazed
TTITLE1=Lee Ann Womack - I Hope You Dance
TTITLE2=LeAnn Rimes - Blue
TTITLE3=Patsy Cline - Crazy
TTITLE4=Tammy Wynette - I Don't Wanna Play House
TTITLE5=Don Williams - I Recall A Gypsy Woman
TTITLE6=Jerry Jeff Walker - Mr Bojangles
TTITLE7=Kenny Rogers - Gambler (The)
TTITLE8=Mac Davis - It's Hard To Be Humble
TTITLE9=Faron Young - It's Four In The Morning
TTITLE10=Crystal Gayle - Don't It Make My Brown Eyes Blue
TTITLE11=Rick Nelson - Garden Party
TTITLE12=Jimmy Buffett - Margaritaville
TTITLE13=Billie Jo Spears - Sing Me An Old Fashioned Song
TTITLE14=Marvin Rainwater - Whole Lotta Woman
TTITLE15=Eddie Rabbitt - I Love A Rainy Night
TTITLE16=Joe South - Walk A Mile In My Shoes
TTITLE17=Band (The) - Night They Drove Old Dixie Down (The)
TTITLE18=Hank Williams - Hey Good Lookin'
TTITLE19=Tennessee Ernie Ford - Sixteen Tons
TTITLE20=Jimmy Dean - Big Bad John
TTITLE21=Kitty Wells - It Wasn't God Who Made Honky Tonk Angels
TTITLE22=Willie Nelson - Funny How Time Slips Away
TTITLE23=Debby Boone - You Light Up My Life
EXTD=
EXTT0=
EXTT1=
EXTT2=
EXTT3=
EXTT4=
EXTT5=
EXTT6=
EXTT7=
EXTT8=
EXTT9=
EXTT10=
EXTT11=
EXTT12=
EXTT13=
EXTT14=
EXTT15=
EXTT16=
EXTT17=
EXTT18=
EXTT19=
EXTT20=
EXTT21=
EXTT22=
EXTT23=
PLAYORDER=
